<mxfile host="65bd71144e">
    <diagram id="v4G46WCBCpeRfdwwdwRP" name="001. Array Introductions">
        <mxGraphModel dx="613" dy="414" grid="1" gridSize="10" guides="1" tooltips="1" connect="1" arrows="1" fold="1" page="1" pageScale="1" pageWidth="827" pageHeight="1169" math="0" shadow="0">
            <root>
                <mxCell id="0"/>
                <mxCell id="1" parent="0"/>
                <mxCell id="2" value="What are arrays?" style="text;html=1;strokeColor=#666666;fillColor=#f5f5f5;align=center;verticalAlign=middle;whiteSpace=wrap;rounded=0;fontColor=#333333;fontStyle=1" parent="1" vertex="1">
                    <mxGeometry x="220" y="300" width="240" height="40" as="geometry"/>
                </mxCell>
                <mxCell id="3" value="&lt;span&gt;Sequence of collection of data is called as arrays&lt;/span&gt;" style="rounded=0;whiteSpace=wrap;html=1;align=left;spacingLeft=8;" parent="1" vertex="1">
                    <mxGeometry x="220" y="340" width="400" height="40" as="geometry"/>
                </mxCell>
                <mxCell id="4" value="How is it different from strings?" style="text;html=1;strokeColor=#666666;fillColor=#f5f5f5;align=center;verticalAlign=middle;whiteSpace=wrap;rounded=0;fontColor=#333333;fontStyle=1" parent="1" vertex="1">
                    <mxGeometry x="220" y="430" width="240" height="40" as="geometry"/>
                </mxCell>
                <mxCell id="5" value="&lt;span&gt;* Array are dervied data types&lt;br&gt;* Array can contain string inside it, but it is not true other way round&lt;br&gt;&lt;/span&gt;" style="rounded=0;whiteSpace=wrap;html=1;align=left;spacingLeft=8;" parent="1" vertex="1">
                    <mxGeometry x="220" y="470" width="400" height="80" as="geometry"/>
                </mxCell>
            </root>
        </mxGraphModel>
    </diagram>
    <diagram id="8QFaSmMroR9OwhAi4n2q" name="002. Array index">
        <mxGraphModel dx="613" dy="414" grid="1" gridSize="10" guides="1" tooltips="1" connect="1" arrows="1" fold="1" page="1" pageScale="1" pageWidth="827" pageHeight="1169" math="0" shadow="0">
            <root>
                <mxCell id="HoqBdw8C1nu_QNRAPUoK-0"/>
                <mxCell id="HoqBdw8C1nu_QNRAPUoK-1" parent="HoqBdw8C1nu_QNRAPUoK-0"/>
                <mxCell id="HoqBdw8C1nu_QNRAPUoK-2" value="location of an item in sequence of collection is known as index" style="rounded=0;whiteSpace=wrap;html=1;align=left;spacingLeft=8;" parent="HoqBdw8C1nu_QNRAPUoK-1" vertex="1">
                    <mxGeometry x="210" y="330" width="440" height="40" as="geometry"/>
                </mxCell>
                <mxCell id="HoqBdw8C1nu_QNRAPUoK-3" value="&lt;span&gt;&lt;b&gt;What are index?&lt;/b&gt;&lt;/span&gt;" style="rounded=0;whiteSpace=wrap;html=1;align=center;fillColor=#f5f5f5;strokeColor=#666666;fontColor=#333333;" parent="HoqBdw8C1nu_QNRAPUoK-1" vertex="1">
                    <mxGeometry x="210" y="290" width="280" height="40" as="geometry"/>
                </mxCell>
                <mxCell id="HoqBdw8C1nu_QNRAPUoK-4" value="Let's consider a array&amp;nbsp;&lt;b&gt;var arr = ['string', 1, true, { &quot;1&quot; : &quot;Jan&quot;, &quot;2&quot;: &quot;Feb&quot; }]&amp;nbsp;&lt;/b&gt;" style="text;html=1;align=center;verticalAlign=middle;whiteSpace=wrap;rounded=0;fillColor=#ffe6cc;strokeColor=#d79b00;" parent="HoqBdw8C1nu_QNRAPUoK-1" vertex="1">
                    <mxGeometry x="210" y="410" width="440" height="40" as="geometry"/>
                </mxCell>
                <mxCell id="HoqBdw8C1nu_QNRAPUoK-5" value="'string'" style="whiteSpace=wrap;html=1;aspect=fixed;fillColor=#ffffff;align=center;verticalAlign=middle;" parent="HoqBdw8C1nu_QNRAPUoK-1" vertex="1">
                    <mxGeometry x="210" y="530" width="40" height="40" as="geometry"/>
                </mxCell>
                <mxCell id="HoqBdw8C1nu_QNRAPUoK-6" value="1" style="whiteSpace=wrap;html=1;aspect=fixed;fillColor=#ffffff;align=center;verticalAlign=middle;" parent="HoqBdw8C1nu_QNRAPUoK-1" vertex="1">
                    <mxGeometry x="250" y="530" width="40" height="40" as="geometry"/>
                </mxCell>
                <mxCell id="HoqBdw8C1nu_QNRAPUoK-7" value="true" style="whiteSpace=wrap;html=1;aspect=fixed;fillColor=#ffffff;align=center;verticalAlign=middle;" parent="HoqBdw8C1nu_QNRAPUoK-1" vertex="1">
                    <mxGeometry x="290" y="530" width="40" height="40" as="geometry"/>
                </mxCell>
                <mxCell id="HoqBdw8C1nu_QNRAPUoK-8" value="{ ... }" style="whiteSpace=wrap;html=1;aspect=fixed;fillColor=#ffffff;align=center;verticalAlign=middle;" parent="HoqBdw8C1nu_QNRAPUoK-1" vertex="1">
                    <mxGeometry x="330" y="530" width="40" height="40" as="geometry"/>
                </mxCell>
                <mxCell id="HoqBdw8C1nu_QNRAPUoK-15" value="0" style="text;html=1;strokeColor=none;fillColor=none;align=center;verticalAlign=middle;whiteSpace=wrap;rounded=0;" parent="HoqBdw8C1nu_QNRAPUoK-1" vertex="1">
                    <mxGeometry x="210" y="570" width="40" height="40" as="geometry"/>
                </mxCell>
                <mxCell id="HoqBdw8C1nu_QNRAPUoK-16" value="1" style="text;html=1;strokeColor=none;fillColor=none;align=center;verticalAlign=middle;whiteSpace=wrap;rounded=0;" parent="HoqBdw8C1nu_QNRAPUoK-1" vertex="1">
                    <mxGeometry x="250" y="570" width="40" height="40" as="geometry"/>
                </mxCell>
                <mxCell id="HoqBdw8C1nu_QNRAPUoK-17" value="2" style="text;html=1;strokeColor=none;fillColor=none;align=center;verticalAlign=middle;whiteSpace=wrap;rounded=0;" parent="HoqBdw8C1nu_QNRAPUoK-1" vertex="1">
                    <mxGeometry x="290" y="570" width="40" height="40" as="geometry"/>
                </mxCell>
                <mxCell id="HoqBdw8C1nu_QNRAPUoK-18" value="3" style="text;html=1;strokeColor=none;fillColor=none;align=center;verticalAlign=middle;whiteSpace=wrap;rounded=0;" parent="HoqBdw8C1nu_QNRAPUoK-1" vertex="1">
                    <mxGeometry x="330" y="570" width="40" height="40" as="geometry"/>
                </mxCell>
                <mxCell id="HoqBdw8C1nu_QNRAPUoK-25" value="index representation" style="text;html=1;strokeColor=none;fillColor=none;align=center;verticalAlign=middle;whiteSpace=wrap;rounded=0;" parent="HoqBdw8C1nu_QNRAPUoK-1" vertex="1">
                    <mxGeometry x="210" y="500" width="140" height="20" as="geometry"/>
                </mxCell>
            </root>
        </mxGraphModel>
    </diagram>
    <diagram id="5zxNjoEnAIrG6JTL6fT2" name="003. Array filter">
        <mxGraphModel dx="593" dy="387" grid="1" gridSize="10" guides="1" tooltips="1" connect="1" arrows="1" fold="1" page="1" pageScale="1" pageWidth="827" pageHeight="1169" math="0" shadow="0">
            <root>
                <mxCell id="0DQXPd8ibX6n9Kegv4S_-0"/>
                <mxCell id="0DQXPd8ibX6n9Kegv4S_-1" parent="0DQXPd8ibX6n9Kegv4S_-0"/>
                <mxCell id="g8TDgZj3Yl9hBlT868f4-0" value="1" style="whiteSpace=wrap;html=1;aspect=fixed;fillColor=#ffffff;align=center;verticalAlign=middle;" parent="0DQXPd8ibX6n9Kegv4S_-1" vertex="1">
                    <mxGeometry x="200" y="320" width="40" height="40" as="geometry"/>
                </mxCell>
                <mxCell id="g8TDgZj3Yl9hBlT868f4-1" value="2" style="whiteSpace=wrap;html=1;aspect=fixed;fillColor=#ffffff;align=center;verticalAlign=middle;" parent="0DQXPd8ibX6n9Kegv4S_-1" vertex="1">
                    <mxGeometry x="240" y="320" width="40" height="40" as="geometry"/>
                </mxCell>
                <mxCell id="g8TDgZj3Yl9hBlT868f4-2" value="3" style="whiteSpace=wrap;html=1;aspect=fixed;fillColor=#ffffff;align=center;verticalAlign=middle;" parent="0DQXPd8ibX6n9Kegv4S_-1" vertex="1">
                    <mxGeometry x="280" y="320" width="40" height="40" as="geometry"/>
                </mxCell>
                <mxCell id="g8TDgZj3Yl9hBlT868f4-3" value="4" style="whiteSpace=wrap;html=1;aspect=fixed;fillColor=#ffffff;align=center;verticalAlign=middle;" parent="0DQXPd8ibX6n9Kegv4S_-1" vertex="1">
                    <mxGeometry x="320" y="320" width="40" height="40" as="geometry"/>
                </mxCell>
                <mxCell id="g8TDgZj3Yl9hBlT868f4-4" value="0" style="text;html=1;strokeColor=none;fillColor=none;align=center;verticalAlign=middle;whiteSpace=wrap;rounded=0;" parent="0DQXPd8ibX6n9Kegv4S_-1" vertex="1">
                    <mxGeometry x="200" y="360" width="40" height="40" as="geometry"/>
                </mxCell>
                <mxCell id="g8TDgZj3Yl9hBlT868f4-5" value="1" style="text;html=1;strokeColor=none;fillColor=none;align=center;verticalAlign=middle;whiteSpace=wrap;rounded=0;" parent="0DQXPd8ibX6n9Kegv4S_-1" vertex="1">
                    <mxGeometry x="240" y="360" width="40" height="40" as="geometry"/>
                </mxCell>
                <mxCell id="g8TDgZj3Yl9hBlT868f4-6" value="2" style="text;html=1;strokeColor=none;fillColor=none;align=center;verticalAlign=middle;whiteSpace=wrap;rounded=0;" parent="0DQXPd8ibX6n9Kegv4S_-1" vertex="1">
                    <mxGeometry x="280" y="360" width="40" height="40" as="geometry"/>
                </mxCell>
                <mxCell id="g8TDgZj3Yl9hBlT868f4-7" value="3" style="text;html=1;strokeColor=none;fillColor=none;align=center;verticalAlign=middle;whiteSpace=wrap;rounded=0;" parent="0DQXPd8ibX6n9Kegv4S_-1" vertex="1">
                    <mxGeometry x="320" y="360" width="40" height="40" as="geometry"/>
                </mxCell>
                <mxCell id="g8TDgZj3Yl9hBlT868f4-8" value="index representation for arr" style="text;html=1;strokeColor=none;fillColor=none;align=center;verticalAlign=middle;whiteSpace=wrap;rounded=0;" parent="0DQXPd8ibX6n9Kegv4S_-1" vertex="1">
                    <mxGeometry x="200" y="290" width="200" height="20" as="geometry"/>
                </mxCell>
                <mxCell id="E5j6Q_y4n9XoB8gQ0hYF-0" value="this method help to extract item from array which satifies gives conditions." style="rounded=0;whiteSpace=wrap;html=1;align=left;spacingLeft=8;" parent="0DQXPd8ibX6n9Kegv4S_-1" vertex="1">
                    <mxGeometry x="200" y="120" width="440" height="40" as="geometry"/>
                </mxCell>
                <mxCell id="E5j6Q_y4n9XoB8gQ0hYF-1" value="&lt;span&gt;&lt;b&gt;What are array filter?&lt;/b&gt;&lt;/span&gt;" style="rounded=0;whiteSpace=wrap;html=1;align=center;fillColor=#f5f5f5;strokeColor=#666666;fontColor=#333333;" parent="0DQXPd8ibX6n9Kegv4S_-1" vertex="1">
                    <mxGeometry x="200" y="80" width="280" height="40" as="geometry"/>
                </mxCell>
                <mxCell id="LuP1l4uZUgdjZKvtFVVL-0" value="Let's consider a array&amp;nbsp;&lt;b&gt;var arr = [1,2,3,4,5,6]&amp;nbsp;&lt;/b&gt;" style="text;html=1;align=center;verticalAlign=middle;whiteSpace=wrap;rounded=0;fillColor=#ffe6cc;strokeColor=#d79b00;" parent="0DQXPd8ibX6n9Kegv4S_-1" vertex="1">
                    <mxGeometry x="200" y="200" width="440" height="40" as="geometry"/>
                </mxCell>
                <mxCell id="LuP1l4uZUgdjZKvtFVVL-1" value="5" style="whiteSpace=wrap;html=1;aspect=fixed;fillColor=#ffffff;align=center;verticalAlign=middle;" parent="0DQXPd8ibX6n9Kegv4S_-1" vertex="1">
                    <mxGeometry x="360" y="320" width="40" height="40" as="geometry"/>
                </mxCell>
                <mxCell id="LuP1l4uZUgdjZKvtFVVL-2" value="6" style="whiteSpace=wrap;html=1;aspect=fixed;fillColor=#ffffff;align=center;verticalAlign=middle;" parent="0DQXPd8ibX6n9Kegv4S_-1" vertex="1">
                    <mxGeometry x="400" y="320" width="40" height="40" as="geometry"/>
                </mxCell>
                <mxCell id="LuP1l4uZUgdjZKvtFVVL-3" value="4" style="text;html=1;strokeColor=none;fillColor=none;align=center;verticalAlign=middle;whiteSpace=wrap;rounded=0;" parent="0DQXPd8ibX6n9Kegv4S_-1" vertex="1">
                    <mxGeometry x="360" y="360" width="40" height="40" as="geometry"/>
                </mxCell>
                <mxCell id="LuP1l4uZUgdjZKvtFVVL-4" value="5" style="text;html=1;strokeColor=none;fillColor=none;align=center;verticalAlign=middle;whiteSpace=wrap;rounded=0;" parent="0DQXPd8ibX6n9Kegv4S_-1" vertex="1">
                    <mxGeometry x="400" y="360" width="40" height="40" as="geometry"/>
                </mxCell>
                <mxCell id="LuP1l4uZUgdjZKvtFVVL-5" value="if we consider case were we want to get all even number&lt;span&gt;&amp;nbsp;&lt;/span&gt;" style="text;html=1;align=center;verticalAlign=middle;whiteSpace=wrap;rounded=0;fillColor=#f5f5f5;strokeColor=#666666;fontColor=#333333;fontStyle=1" parent="0DQXPd8ibX6n9Kegv4S_-1" vertex="1">
                    <mxGeometry x="200" y="440" width="440" height="40" as="geometry"/>
                </mxCell>
                <mxCell id="LuP1l4uZUgdjZKvtFVVL-6" value="var evenNumbers = arr.filter(function(item) {&lt;br&gt;&lt;div&gt;&lt;span&gt;&lt;span style=&quot;white-space: pre&quot;&gt;&#9;&lt;/span&gt;return item % 2 === 0;&lt;/span&gt;&lt;/div&gt;});" style="rounded=0;whiteSpace=wrap;html=1;align=left;" parent="0DQXPd8ibX6n9Kegv4S_-1" vertex="1">
                    <mxGeometry x="200" y="480" width="360" height="40" as="geometry"/>
                </mxCell>
                <mxCell id="LuP1l4uZUgdjZKvtFVVL-7" value="2" style="whiteSpace=wrap;html=1;aspect=fixed;fillColor=#ffffff;align=center;verticalAlign=middle;" parent="0DQXPd8ibX6n9Kegv4S_-1" vertex="1">
                    <mxGeometry x="200" y="600" width="40" height="40" as="geometry"/>
                </mxCell>
                <mxCell id="LuP1l4uZUgdjZKvtFVVL-8" value="4" style="whiteSpace=wrap;html=1;aspect=fixed;fillColor=#ffffff;align=center;verticalAlign=middle;" parent="0DQXPd8ibX6n9Kegv4S_-1" vertex="1">
                    <mxGeometry x="240" y="600" width="40" height="40" as="geometry"/>
                </mxCell>
                <mxCell id="LuP1l4uZUgdjZKvtFVVL-9" value="6" style="whiteSpace=wrap;html=1;aspect=fixed;fillColor=#ffffff;align=center;verticalAlign=middle;" parent="0DQXPd8ibX6n9Kegv4S_-1" vertex="1">
                    <mxGeometry x="280" y="600" width="40" height="40" as="geometry"/>
                </mxCell>
                <mxCell id="LuP1l4uZUgdjZKvtFVVL-11" value="0" style="text;html=1;strokeColor=none;fillColor=none;align=center;verticalAlign=middle;whiteSpace=wrap;rounded=0;" parent="0DQXPd8ibX6n9Kegv4S_-1" vertex="1">
                    <mxGeometry x="200" y="640" width="40" height="40" as="geometry"/>
                </mxCell>
                <mxCell id="LuP1l4uZUgdjZKvtFVVL-12" value="1" style="text;html=1;strokeColor=none;fillColor=none;align=center;verticalAlign=middle;whiteSpace=wrap;rounded=0;" parent="0DQXPd8ibX6n9Kegv4S_-1" vertex="1">
                    <mxGeometry x="240" y="640" width="40" height="40" as="geometry"/>
                </mxCell>
                <mxCell id="LuP1l4uZUgdjZKvtFVVL-13" value="2" style="text;html=1;strokeColor=none;fillColor=none;align=center;verticalAlign=middle;whiteSpace=wrap;rounded=0;" parent="0DQXPd8ibX6n9Kegv4S_-1" vertex="1">
                    <mxGeometry x="280" y="640" width="40" height="40" as="geometry"/>
                </mxCell>
                <mxCell id="LuP1l4uZUgdjZKvtFVVL-15" value="index representation for evenNumbers" style="text;html=1;strokeColor=none;fillColor=none;align=center;verticalAlign=middle;whiteSpace=wrap;rounded=0;" parent="0DQXPd8ibX6n9Kegv4S_-1" vertex="1">
                    <mxGeometry x="200" y="570" width="240" height="20" as="geometry"/>
                </mxCell>
            </root>
        </mxGraphModel>
    </diagram>
    <diagram id="E2SzLTLh_2LJqmxqx5Af" name="004. Array map">
        <mxGraphModel dx="593" dy="387" grid="1" gridSize="10" guides="1" tooltips="1" connect="1" arrows="1" fold="1" page="1" pageScale="1" pageWidth="827" pageHeight="1169" math="0" shadow="0">
            <root>
                <mxCell id="qVkvGxDojo7t93Plqymq-0"/>
                <mxCell id="qVkvGxDojo7t93Plqymq-1" parent="qVkvGxDojo7t93Plqymq-0"/>
                <mxCell id="qs2Ka0h5LpGQjBwzmQiu-0" value="1" style="whiteSpace=wrap;html=1;aspect=fixed;fillColor=#ffffff;align=center;verticalAlign=middle;" parent="qVkvGxDojo7t93Plqymq-1" vertex="1">
                    <mxGeometry x="200" y="320" width="40" height="40" as="geometry"/>
                </mxCell>
                <mxCell id="qs2Ka0h5LpGQjBwzmQiu-1" value="2" style="whiteSpace=wrap;html=1;aspect=fixed;fillColor=#ffffff;align=center;verticalAlign=middle;" parent="qVkvGxDojo7t93Plqymq-1" vertex="1">
                    <mxGeometry x="240" y="320" width="40" height="40" as="geometry"/>
                </mxCell>
                <mxCell id="qs2Ka0h5LpGQjBwzmQiu-2" value="3" style="whiteSpace=wrap;html=1;aspect=fixed;fillColor=#ffffff;align=center;verticalAlign=middle;" parent="qVkvGxDojo7t93Plqymq-1" vertex="1">
                    <mxGeometry x="280" y="320" width="40" height="40" as="geometry"/>
                </mxCell>
                <mxCell id="qs2Ka0h5LpGQjBwzmQiu-3" value="4" style="whiteSpace=wrap;html=1;aspect=fixed;fillColor=#ffffff;align=center;verticalAlign=middle;" parent="qVkvGxDojo7t93Plqymq-1" vertex="1">
                    <mxGeometry x="320" y="320" width="40" height="40" as="geometry"/>
                </mxCell>
                <mxCell id="qs2Ka0h5LpGQjBwzmQiu-4" value="0" style="text;html=1;strokeColor=none;fillColor=none;align=center;verticalAlign=middle;whiteSpace=wrap;rounded=0;" parent="qVkvGxDojo7t93Plqymq-1" vertex="1">
                    <mxGeometry x="200" y="360" width="40" height="40" as="geometry"/>
                </mxCell>
                <mxCell id="qs2Ka0h5LpGQjBwzmQiu-5" value="1" style="text;html=1;strokeColor=none;fillColor=none;align=center;verticalAlign=middle;whiteSpace=wrap;rounded=0;" parent="qVkvGxDojo7t93Plqymq-1" vertex="1">
                    <mxGeometry x="240" y="360" width="40" height="40" as="geometry"/>
                </mxCell>
                <mxCell id="qs2Ka0h5LpGQjBwzmQiu-6" value="2" style="text;html=1;strokeColor=none;fillColor=none;align=center;verticalAlign=middle;whiteSpace=wrap;rounded=0;" parent="qVkvGxDojo7t93Plqymq-1" vertex="1">
                    <mxGeometry x="280" y="360" width="40" height="40" as="geometry"/>
                </mxCell>
                <mxCell id="qs2Ka0h5LpGQjBwzmQiu-7" value="3" style="text;html=1;strokeColor=none;fillColor=none;align=center;verticalAlign=middle;whiteSpace=wrap;rounded=0;" parent="qVkvGxDojo7t93Plqymq-1" vertex="1">
                    <mxGeometry x="320" y="360" width="40" height="40" as="geometry"/>
                </mxCell>
                <mxCell id="qs2Ka0h5LpGQjBwzmQiu-8" value="index representation for arr" style="text;html=1;strokeColor=none;fillColor=none;align=center;verticalAlign=middle;whiteSpace=wrap;rounded=0;" parent="qVkvGxDojo7t93Plqymq-1" vertex="1">
                    <mxGeometry x="200" y="290" width="200" height="20" as="geometry"/>
                </mxCell>
                <mxCell id="qs2Ka0h5LpGQjBwzmQiu-9" value="This method is used to perform operation on individual item and produce new array with result" style="rounded=0;whiteSpace=wrap;html=1;align=left;spacingLeft=8;" parent="qVkvGxDojo7t93Plqymq-1" vertex="1">
                    <mxGeometry x="200" y="120" width="520" height="40" as="geometry"/>
                </mxCell>
                <mxCell id="qs2Ka0h5LpGQjBwzmQiu-10" value="&lt;span&gt;&lt;b&gt;What are array map?&lt;/b&gt;&lt;/span&gt;" style="rounded=0;whiteSpace=wrap;html=1;align=center;fillColor=#f5f5f5;strokeColor=#666666;fontColor=#333333;" parent="qVkvGxDojo7t93Plqymq-1" vertex="1">
                    <mxGeometry x="200" y="80" width="280" height="40" as="geometry"/>
                </mxCell>
                <mxCell id="qs2Ka0h5LpGQjBwzmQiu-11" value="Let's consider a array&amp;nbsp;&lt;b&gt;var arr = [1,2,3,4,5,6]&amp;nbsp;&lt;/b&gt;" style="text;html=1;align=center;verticalAlign=middle;whiteSpace=wrap;rounded=0;fillColor=#ffe6cc;strokeColor=#d79b00;" parent="qVkvGxDojo7t93Plqymq-1" vertex="1">
                    <mxGeometry x="200" y="200" width="440" height="40" as="geometry"/>
                </mxCell>
                <mxCell id="qs2Ka0h5LpGQjBwzmQiu-12" value="5" style="whiteSpace=wrap;html=1;aspect=fixed;fillColor=#ffffff;align=center;verticalAlign=middle;" parent="qVkvGxDojo7t93Plqymq-1" vertex="1">
                    <mxGeometry x="360" y="320" width="40" height="40" as="geometry"/>
                </mxCell>
                <mxCell id="qs2Ka0h5LpGQjBwzmQiu-13" value="6" style="whiteSpace=wrap;html=1;aspect=fixed;fillColor=#ffffff;align=center;verticalAlign=middle;" parent="qVkvGxDojo7t93Plqymq-1" vertex="1">
                    <mxGeometry x="400" y="320" width="40" height="40" as="geometry"/>
                </mxCell>
                <mxCell id="qs2Ka0h5LpGQjBwzmQiu-14" value="4" style="text;html=1;strokeColor=none;fillColor=none;align=center;verticalAlign=middle;whiteSpace=wrap;rounded=0;" parent="qVkvGxDojo7t93Plqymq-1" vertex="1">
                    <mxGeometry x="360" y="360" width="40" height="40" as="geometry"/>
                </mxCell>
                <mxCell id="qs2Ka0h5LpGQjBwzmQiu-15" value="5" style="text;html=1;strokeColor=none;fillColor=none;align=center;verticalAlign=middle;whiteSpace=wrap;rounded=0;" parent="qVkvGxDojo7t93Plqymq-1" vertex="1">
                    <mxGeometry x="400" y="360" width="40" height="40" as="geometry"/>
                </mxCell>
                <mxCell id="qs2Ka0h5LpGQjBwzmQiu-16" value="Given array double all the numbers in it." style="text;html=1;align=center;verticalAlign=middle;whiteSpace=wrap;rounded=0;fillColor=#f5f5f5;strokeColor=#666666;fontStyle=1;fontColor=#333333;" parent="qVkvGxDojo7t93Plqymq-1" vertex="1">
                    <mxGeometry x="200" y="440" width="440" height="40" as="geometry"/>
                </mxCell>
                <mxCell id="qs2Ka0h5LpGQjBwzmQiu-17" value="var doubleArr = arr.map(function(item) {&lt;br&gt;&lt;div&gt;&lt;span&gt;&lt;span style=&quot;white-space: pre&quot;&gt;&#9;&lt;/span&gt;return item * 2;&lt;/span&gt;&lt;/div&gt;});" style="rounded=0;whiteSpace=wrap;html=1;align=left;" parent="qVkvGxDojo7t93Plqymq-1" vertex="1">
                    <mxGeometry x="200" y="480" width="360" height="40" as="geometry"/>
                </mxCell>
                <mxCell id="qs2Ka0h5LpGQjBwzmQiu-24" value="index representation for evenNumbers" style="text;html=1;strokeColor=none;fillColor=none;align=center;verticalAlign=middle;whiteSpace=wrap;rounded=0;" parent="qVkvGxDojo7t93Plqymq-1" vertex="1">
                    <mxGeometry x="200" y="570" width="240" height="20" as="geometry"/>
                </mxCell>
                <mxCell id="3-GV_irJddAn7LQAJkvg-0" value="2" style="whiteSpace=wrap;html=1;aspect=fixed;fillColor=#ffffff;align=center;verticalAlign=middle;" parent="qVkvGxDojo7t93Plqymq-1" vertex="1">
                    <mxGeometry x="200" y="600" width="40" height="40" as="geometry"/>
                </mxCell>
                <mxCell id="3-GV_irJddAn7LQAJkvg-1" value="4" style="whiteSpace=wrap;html=1;aspect=fixed;fillColor=#ffffff;align=center;verticalAlign=middle;" parent="qVkvGxDojo7t93Plqymq-1" vertex="1">
                    <mxGeometry x="240" y="600" width="40" height="40" as="geometry"/>
                </mxCell>
                <mxCell id="3-GV_irJddAn7LQAJkvg-2" value="6" style="whiteSpace=wrap;html=1;aspect=fixed;fillColor=#ffffff;align=center;verticalAlign=middle;" parent="qVkvGxDojo7t93Plqymq-1" vertex="1">
                    <mxGeometry x="280" y="600" width="40" height="40" as="geometry"/>
                </mxCell>
                <mxCell id="3-GV_irJddAn7LQAJkvg-3" value="8" style="whiteSpace=wrap;html=1;aspect=fixed;fillColor=#ffffff;align=center;verticalAlign=middle;" parent="qVkvGxDojo7t93Plqymq-1" vertex="1">
                    <mxGeometry x="320" y="600" width="40" height="40" as="geometry"/>
                </mxCell>
                <mxCell id="3-GV_irJddAn7LQAJkvg-4" value="0" style="text;html=1;strokeColor=none;fillColor=none;align=center;verticalAlign=middle;whiteSpace=wrap;rounded=0;" parent="qVkvGxDojo7t93Plqymq-1" vertex="1">
                    <mxGeometry x="200" y="640" width="40" height="40" as="geometry"/>
                </mxCell>
                <mxCell id="3-GV_irJddAn7LQAJkvg-5" value="1" style="text;html=1;strokeColor=none;fillColor=none;align=center;verticalAlign=middle;whiteSpace=wrap;rounded=0;" parent="qVkvGxDojo7t93Plqymq-1" vertex="1">
                    <mxGeometry x="240" y="640" width="40" height="40" as="geometry"/>
                </mxCell>
                <mxCell id="3-GV_irJddAn7LQAJkvg-6" value="2" style="text;html=1;strokeColor=none;fillColor=none;align=center;verticalAlign=middle;whiteSpace=wrap;rounded=0;" parent="qVkvGxDojo7t93Plqymq-1" vertex="1">
                    <mxGeometry x="280" y="640" width="40" height="40" as="geometry"/>
                </mxCell>
                <mxCell id="3-GV_irJddAn7LQAJkvg-7" value="3" style="text;html=1;strokeColor=none;fillColor=none;align=center;verticalAlign=middle;whiteSpace=wrap;rounded=0;" parent="qVkvGxDojo7t93Plqymq-1" vertex="1">
                    <mxGeometry x="320" y="640" width="40" height="40" as="geometry"/>
                </mxCell>
                <mxCell id="3-GV_irJddAn7LQAJkvg-8" value="10" style="whiteSpace=wrap;html=1;aspect=fixed;fillColor=#ffffff;align=center;verticalAlign=middle;" parent="qVkvGxDojo7t93Plqymq-1" vertex="1">
                    <mxGeometry x="360" y="600" width="40" height="40" as="geometry"/>
                </mxCell>
                <mxCell id="3-GV_irJddAn7LQAJkvg-9" value="12" style="whiteSpace=wrap;html=1;aspect=fixed;fillColor=#ffffff;align=center;verticalAlign=middle;" parent="qVkvGxDojo7t93Plqymq-1" vertex="1">
                    <mxGeometry x="400" y="600" width="40" height="40" as="geometry"/>
                </mxCell>
                <mxCell id="3-GV_irJddAn7LQAJkvg-10" value="4" style="text;html=1;strokeColor=none;fillColor=none;align=center;verticalAlign=middle;whiteSpace=wrap;rounded=0;" parent="qVkvGxDojo7t93Plqymq-1" vertex="1">
                    <mxGeometry x="360" y="640" width="40" height="40" as="geometry"/>
                </mxCell>
                <mxCell id="3-GV_irJddAn7LQAJkvg-11" value="5" style="text;html=1;strokeColor=none;fillColor=none;align=center;verticalAlign=middle;whiteSpace=wrap;rounded=0;" parent="qVkvGxDojo7t93Plqymq-1" vertex="1">
                    <mxGeometry x="400" y="640" width="40" height="40" as="geometry"/>
                </mxCell>
            </root>
        </mxGraphModel>
    </diagram>
    <diagram id="g3JBoyQK23OylRLoyS7A" name="005. Array reduce">
        <mxGraphModel dx="593" dy="387" grid="1" gridSize="10" guides="1" tooltips="1" connect="1" arrows="1" fold="1" page="1" pageScale="1" pageWidth="827" pageHeight="1169" math="0" shadow="0">
            <root>
                <mxCell id="Ni-RypDoNfe744NjyueH-0"/>
                <mxCell id="Ni-RypDoNfe744NjyueH-1" parent="Ni-RypDoNfe744NjyueH-0"/>
                <mxCell id="Ni-RypDoNfe744NjyueH-2" value="1" style="whiteSpace=wrap;html=1;aspect=fixed;fillColor=#ffffff;align=center;verticalAlign=middle;" parent="Ni-RypDoNfe744NjyueH-1" vertex="1">
                    <mxGeometry x="114" y="320" width="40" height="40" as="geometry"/>
                </mxCell>
                <mxCell id="Ni-RypDoNfe744NjyueH-3" value="2" style="whiteSpace=wrap;html=1;aspect=fixed;fillColor=#ffffff;align=center;verticalAlign=middle;" parent="Ni-RypDoNfe744NjyueH-1" vertex="1">
                    <mxGeometry x="154" y="320" width="40" height="40" as="geometry"/>
                </mxCell>
                <mxCell id="Ni-RypDoNfe744NjyueH-4" value="3" style="whiteSpace=wrap;html=1;aspect=fixed;fillColor=#ffffff;align=center;verticalAlign=middle;" parent="Ni-RypDoNfe744NjyueH-1" vertex="1">
                    <mxGeometry x="194" y="320" width="40" height="40" as="geometry"/>
                </mxCell>
                <mxCell id="Ni-RypDoNfe744NjyueH-5" value="4" style="whiteSpace=wrap;html=1;aspect=fixed;fillColor=#ffffff;align=center;verticalAlign=middle;" parent="Ni-RypDoNfe744NjyueH-1" vertex="1">
                    <mxGeometry x="234" y="320" width="40" height="40" as="geometry"/>
                </mxCell>
                <mxCell id="Ni-RypDoNfe744NjyueH-6" value="0" style="text;html=1;strokeColor=none;fillColor=none;align=center;verticalAlign=middle;whiteSpace=wrap;rounded=0;" parent="Ni-RypDoNfe744NjyueH-1" vertex="1">
                    <mxGeometry x="114" y="360" width="40" height="40" as="geometry"/>
                </mxCell>
                <mxCell id="Ni-RypDoNfe744NjyueH-7" value="1" style="text;html=1;strokeColor=none;fillColor=none;align=center;verticalAlign=middle;whiteSpace=wrap;rounded=0;" parent="Ni-RypDoNfe744NjyueH-1" vertex="1">
                    <mxGeometry x="154" y="360" width="40" height="40" as="geometry"/>
                </mxCell>
                <mxCell id="Ni-RypDoNfe744NjyueH-8" value="2" style="text;html=1;strokeColor=none;fillColor=none;align=center;verticalAlign=middle;whiteSpace=wrap;rounded=0;" parent="Ni-RypDoNfe744NjyueH-1" vertex="1">
                    <mxGeometry x="194" y="360" width="40" height="40" as="geometry"/>
                </mxCell>
                <mxCell id="Ni-RypDoNfe744NjyueH-9" value="3" style="text;html=1;strokeColor=none;fillColor=none;align=center;verticalAlign=middle;whiteSpace=wrap;rounded=0;" parent="Ni-RypDoNfe744NjyueH-1" vertex="1">
                    <mxGeometry x="234" y="360" width="40" height="40" as="geometry"/>
                </mxCell>
                <mxCell id="Ni-RypDoNfe744NjyueH-10" value="index representation for arr" style="text;html=1;strokeColor=none;fillColor=none;align=center;verticalAlign=middle;whiteSpace=wrap;rounded=0;" parent="Ni-RypDoNfe744NjyueH-1" vertex="1">
                    <mxGeometry x="114" y="290" width="200" height="20" as="geometry"/>
                </mxCell>
                <mxCell id="Ni-RypDoNfe744NjyueH-11" value="This method is used to perform action on individual item, such a way that result would be of type&amp;nbsp;accumulator" style="rounded=0;whiteSpace=wrap;html=1;align=left;spacingLeft=8;" parent="Ni-RypDoNfe744NjyueH-1" vertex="1">
                    <mxGeometry x="114" y="120" width="600" height="40" as="geometry"/>
                </mxCell>
                <mxCell id="Ni-RypDoNfe744NjyueH-12" value="&lt;span&gt;&lt;b&gt;What are array reduce?&lt;/b&gt;&lt;/span&gt;" style="rounded=0;whiteSpace=wrap;html=1;align=center;fillColor=#f5f5f5;strokeColor=#666666;fontColor=#333333;" parent="Ni-RypDoNfe744NjyueH-1" vertex="1">
                    <mxGeometry x="114" y="80" width="280" height="40" as="geometry"/>
                </mxCell>
                <mxCell id="Ni-RypDoNfe744NjyueH-13" value="Let's consider a array&amp;nbsp;&lt;b&gt;var arr = [1,2,3,4,5,6]&amp;nbsp;&lt;/b&gt;" style="text;html=1;align=center;verticalAlign=middle;whiteSpace=wrap;rounded=0;fillColor=#ffe6cc;strokeColor=#d79b00;" parent="Ni-RypDoNfe744NjyueH-1" vertex="1">
                    <mxGeometry x="114" y="200" width="440" height="40" as="geometry"/>
                </mxCell>
                <mxCell id="Ni-RypDoNfe744NjyueH-14" value="5" style="whiteSpace=wrap;html=1;aspect=fixed;fillColor=#ffffff;align=center;verticalAlign=middle;" parent="Ni-RypDoNfe744NjyueH-1" vertex="1">
                    <mxGeometry x="274" y="320" width="40" height="40" as="geometry"/>
                </mxCell>
                <mxCell id="Ni-RypDoNfe744NjyueH-15" value="6" style="whiteSpace=wrap;html=1;aspect=fixed;fillColor=#ffffff;align=center;verticalAlign=middle;" parent="Ni-RypDoNfe744NjyueH-1" vertex="1">
                    <mxGeometry x="314" y="320" width="40" height="40" as="geometry"/>
                </mxCell>
                <mxCell id="Ni-RypDoNfe744NjyueH-16" value="4" style="text;html=1;strokeColor=none;fillColor=none;align=center;verticalAlign=middle;whiteSpace=wrap;rounded=0;" parent="Ni-RypDoNfe744NjyueH-1" vertex="1">
                    <mxGeometry x="274" y="360" width="40" height="40" as="geometry"/>
                </mxCell>
                <mxCell id="Ni-RypDoNfe744NjyueH-17" value="5" style="text;html=1;strokeColor=none;fillColor=none;align=center;verticalAlign=middle;whiteSpace=wrap;rounded=0;" parent="Ni-RypDoNfe744NjyueH-1" vertex="1">
                    <mxGeometry x="314" y="360" width="40" height="40" as="geometry"/>
                </mxCell>
                <mxCell id="Ni-RypDoNfe744NjyueH-18" value="Add all the number in the array" style="text;html=1;align=center;verticalAlign=middle;whiteSpace=wrap;rounded=0;fillColor=#f5f5f5;strokeColor=#666666;fontStyle=1;fontColor=#333333;" parent="Ni-RypDoNfe744NjyueH-1" vertex="1">
                    <mxGeometry x="114" y="440" width="440" height="40" as="geometry"/>
                </mxCell>
                <mxCell id="Ni-RypDoNfe744NjyueH-19" value="var sum = arr.reduce(function(acc, item) {&lt;br&gt;&lt;span style=&quot;white-space: pre&quot;&gt;&#9;&lt;/span&gt;acc += item;&lt;br&gt;&lt;div&gt;&lt;span&gt;&lt;span style=&quot;white-space: pre&quot;&gt;&#9;&lt;/span&gt;return acc;&lt;/span&gt;&lt;/div&gt;}, 0);" style="rounded=0;whiteSpace=wrap;html=1;align=left;spacingLeft=8;" parent="Ni-RypDoNfe744NjyueH-1" vertex="1">
                    <mxGeometry x="114" y="480" width="360" height="80" as="geometry"/>
                </mxCell>
            </root>
        </mxGraphModel>
    </diagram>
    <diagram id="Uftg3ROWK75AF78hCNaH" name="006. Array Slice">
        <mxGraphModel dx="791" dy="516" grid="1" gridSize="10" guides="1" tooltips="1" connect="1" arrows="1" fold="1" page="1" pageScale="1" pageWidth="827" pageHeight="1169" math="0" shadow="0">
            <root>
                <mxCell id="q_wokoE6gqb6sjDVnvee-0"/>
                <mxCell id="q_wokoE6gqb6sjDVnvee-1" parent="q_wokoE6gqb6sjDVnvee-0"/>
                <mxCell id="1fOQC_rqG7qVuZuYB2CB-0" value="splice is a method which can be used to add/delete or update data from any specific position" style="rounded=0;whiteSpace=wrap;html=1;align=left;spacingLeft=8;fontStyle=1" vertex="1" parent="q_wokoE6gqb6sjDVnvee-1">
                    <mxGeometry x="200" y="320" width="560" height="40" as="geometry"/>
                </mxCell>
                <mxCell id="1fOQC_rqG7qVuZuYB2CB-1" value="&lt;span&gt;&lt;span&gt;What are splice?&lt;/span&gt;&lt;/span&gt;" style="rounded=0;whiteSpace=wrap;html=1;align=center;fillColor=#f5f5f5;strokeColor=#666666;fontColor=#333333;fontStyle=1" vertex="1" parent="q_wokoE6gqb6sjDVnvee-1">
                    <mxGeometry x="200" y="280" width="280" height="40" as="geometry"/>
                </mxCell>
                <mxCell id="1fOQC_rqG7qVuZuYB2CB-2" value="Syntax of splice = arr.splice(position, noOfElementToDelete, ...elementsToAdd)" style="text;html=1;align=center;verticalAlign=middle;whiteSpace=wrap;rounded=0;fillColor=#ffe6cc;strokeColor=#d79b00;fontStyle=1" vertex="1" parent="q_wokoE6gqb6sjDVnvee-1">
                    <mxGeometry x="200" y="400" width="560" height="40" as="geometry"/>
                </mxCell>
                <mxCell id="1fOQC_rqG7qVuZuYB2CB-3" value="'string'" style="whiteSpace=wrap;html=1;aspect=fixed;fillColor=#ffffff;align=center;verticalAlign=middle;fontStyle=1" vertex="1" parent="q_wokoE6gqb6sjDVnvee-1">
                    <mxGeometry x="200" y="520" width="40" height="40" as="geometry"/>
                </mxCell>
                <mxCell id="1fOQC_rqG7qVuZuYB2CB-4" value="1" style="whiteSpace=wrap;html=1;aspect=fixed;fillColor=#ffffff;align=center;verticalAlign=middle;fontStyle=1" vertex="1" parent="q_wokoE6gqb6sjDVnvee-1">
                    <mxGeometry x="240" y="520" width="40" height="40" as="geometry"/>
                </mxCell>
                <mxCell id="1fOQC_rqG7qVuZuYB2CB-5" value="true" style="whiteSpace=wrap;html=1;aspect=fixed;fillColor=#ffffff;align=center;verticalAlign=middle;fontStyle=1" vertex="1" parent="q_wokoE6gqb6sjDVnvee-1">
                    <mxGeometry x="280" y="520" width="40" height="40" as="geometry"/>
                </mxCell>
                <mxCell id="1fOQC_rqG7qVuZuYB2CB-6" value="{ ... }" style="whiteSpace=wrap;html=1;aspect=fixed;fillColor=#ffffff;align=center;verticalAlign=middle;fontStyle=1" vertex="1" parent="q_wokoE6gqb6sjDVnvee-1">
                    <mxGeometry x="320" y="520" width="40" height="40" as="geometry"/>
                </mxCell>
                <mxCell id="1fOQC_rqG7qVuZuYB2CB-7" value="0" style="text;html=1;strokeColor=none;fillColor=none;align=center;verticalAlign=middle;whiteSpace=wrap;rounded=0;fontStyle=1" vertex="1" parent="q_wokoE6gqb6sjDVnvee-1">
                    <mxGeometry x="200" y="560" width="40" height="40" as="geometry"/>
                </mxCell>
                <mxCell id="1fOQC_rqG7qVuZuYB2CB-8" value="1" style="text;html=1;strokeColor=none;fillColor=none;align=center;verticalAlign=middle;whiteSpace=wrap;rounded=0;fontStyle=1" vertex="1" parent="q_wokoE6gqb6sjDVnvee-1">
                    <mxGeometry x="240" y="560" width="40" height="40" as="geometry"/>
                </mxCell>
                <mxCell id="1fOQC_rqG7qVuZuYB2CB-9" value="2" style="text;html=1;strokeColor=none;fillColor=none;align=center;verticalAlign=middle;whiteSpace=wrap;rounded=0;fontStyle=1" vertex="1" parent="q_wokoE6gqb6sjDVnvee-1">
                    <mxGeometry x="280" y="560" width="40" height="40" as="geometry"/>
                </mxCell>
                <mxCell id="1fOQC_rqG7qVuZuYB2CB-10" value="3" style="text;html=1;strokeColor=none;fillColor=none;align=center;verticalAlign=middle;whiteSpace=wrap;rounded=0;fontStyle=1" vertex="1" parent="q_wokoE6gqb6sjDVnvee-1">
                    <mxGeometry x="320" y="560" width="40" height="40" as="geometry"/>
                </mxCell>
                <mxCell id="1fOQC_rqG7qVuZuYB2CB-11" value="index representation" style="text;html=1;strokeColor=none;fillColor=none;align=center;verticalAlign=middle;whiteSpace=wrap;rounded=0;fontStyle=1" vertex="1" parent="q_wokoE6gqb6sjDVnvee-1">
                    <mxGeometry x="200" y="490" width="140" height="20" as="geometry"/>
                </mxCell>
            </root>
        </mxGraphModel>
    </diagram>
</mxfile>